<svg width="22" height="32" viewBox="0 0 22 32" fill="none" xmlns="http://www.w3.org/2000/svg">
<path d="M3.84009 3.52008H5.76019V5.44019H3.84009V3.52008Z" fill="white"/>
<path d="M5.7601 5.43994H7.68021V7.36005H5.7601V5.43994Z" fill="white"/>
<path d="M7.68008 7.35999H9.60019V9.28009H7.68008V7.35999Z" fill="white"/>
<path d="M9.60007 9.27997H11.5202V11.2001H9.60007V9.27997Z" fill="white"/>
<path d="M11.5201 11.2H13.4402V13.1201H11.5201V11.2Z" fill="white"/>
<path d="M13.4401 13.1199H15.3602V15.04H13.4401V13.1199Z" fill="white"/>
<path d="M15.36 15.04H17.2802V16.9601H15.36V15.04Z" fill="white"/>
<path d="M1.92011 3.5201H3.84022V1.59999H1.92011V0H0V28.4799H1.92011V26.56H3.84022V24.6399H1.92011V3.5201Z" fill="white"/>
<path d="M7.68008 22.7199H9.60019V26.5598H7.68008V22.7199Z" fill="white"/>
<path d="M5.7601 20.7999H7.68021V22.72H5.7601V20.7999Z" fill="white"/>
<path d="M3.84009 22.7199H5.76019V24.64H3.84009V22.7199Z" fill="white"/>
<path d="M13.4401 22.7199H15.3602V26.5598H13.4401V22.7199Z" fill="white"/>
<path d="M15.36 26.5599H17.2802V30.08H15.36V26.5599Z" fill="white"/>
<path d="M9.60007 26.5599H11.5202V30.08H9.60007V26.5599Z" fill="white"/>
<path d="M11.5201 30.0799V32H15.36V30.0799H11.5201Z" fill="white"/>
<path d="M21.12 20.7999V18.8798H19.1999V16.96H17.2801V18.8798H11.5201V22.72H13.4402V20.7999L21.12 20.7999Z" fill="white"/>
</svg>
