<svg width="561" height="436" viewBox="0 0 561 436" fill="none" xmlns="http://www.w3.org/2000/svg">
<path d="M280.779 62.4398L311.888 62.4399L311.888 124.664L374.112 124.664L374.112 186.888L0.778662 186.888L0.778659 249.112L374.112 249.112L374.112 311.331L311.888 311.331L311.888 373.555L280.779 373.555L280.779 435.778L374.112 435.778L374.112 373.555L436.336 373.555L436.336 311.331L498.555 311.331L498.555 280.221L529.669 280.221L529.669 249.112L560.779 249.112L560.779 186.888L529.669 186.888L529.669 155.779L498.555 155.779L498.555 124.664L436.336 124.664L436.336 62.4399L374.112 62.4399L374.112 0.221183L280.779 0.221179L280.779 62.4398Z" fill="#1D38F3"/>
</svg>
