<svg width="448" height="448" viewBox="0 0 448 448" fill="none" xmlns="http://www.w3.org/2000/svg">
<rect width="448" height="448" fill="white"/>
<path d="M312.887 190.667V161.778H297.332V150.667H286.221V137.333L259.555 137.334V124H188.444V137.334H161.777V150.668H150.666V161.779H135.111V190.669L124 190.667V257.334H135.111V286.223H150.666V297.334H161.777V310.668H188.444V324.002H259.555V310.668H286.221V297.334H297.332V286.223H312.887L312.889 257.334H324V190.667H312.887ZM317.331 250.667H306.22V279.556H290.665V290.668H279.554V304.002H252.888V317.336L195.11 317.334V304L168.444 304.002V290.668H157.333V279.556H141.777V250.667H130.666V197.334H141.777V168.444H157.333V157.333H168.444V143.999H195.11V130.667H252.888V144.001H279.554V157.335H290.665V168.446H306.22V197.335H317.331V250.667Z" fill="black"/>
<path d="M268.443 217.334H281.777V230.668H268.443V217.334Z" fill="black"/>
<path d="M241.776 217.334H255.11V230.668H241.776V217.334Z" fill="black"/>
<path d="M255.11 230.667H268.444V244.001H255.11V230.667Z" fill="black"/>
<path d="M192.887 217.334H206.221V230.668H192.887V217.334Z" fill="black"/>
<path d="M166.221 217.334H179.555V230.668H166.221V217.334Z" fill="black"/>
<path d="M179.554 230.667H192.888V244.001H179.554V230.667Z" fill="black"/>
<path d="M243.998 257.334H257.333V270.668H243.998V257.334Z" fill="black"/>
<path d="M190.665 257.334H203.999V270.668H190.665V257.334Z" fill="black"/>
<path d="M203.998 270.667H243.998V284.001H203.998V270.667Z" fill="black"/>
</svg>
