<svg width="448" height="448" viewBox="0 0 448 448" fill="none" xmlns="http://www.w3.org/2000/svg">
<rect width="448" height="448"/>
<path d="M295.428 296.011H324V324.68H295.428V296.011Z" fill="#1D38F3"/>
<path d="M209.714 210.005H238.286V238.675H209.714V210.005Z" fill="#1D38F3"/>
<path d="M181.14 238.676H209.713V267.345H181.14V238.676Z" fill="#1D38F3"/>
<path d="M152.574 267.347H181.146V296.016H152.574V267.347Z" fill="#1D38F3"/>
<path d="M124 296.011H152.572V324.68H124V296.011Z" fill="#1D38F3"/>
<path d="M238.287 181.335H266.86V210.004H238.287V181.335Z" fill="#1D38F3"/>
<path d="M266.861 152.671H295.433V181.34H266.861V152.671Z" fill="#1D38F3"/>
<path d="M295.428 124H324V152.669H295.428V124Z" fill="#1D38F3"/>
<path d="M238.287 238.676H266.86V267.345H238.287V238.676Z" fill="#1D38F3"/>
<path d="M266.861 267.347H295.433V296.016H266.861V267.347Z" fill="#1D38F3"/>
<path d="M181.14 181.335H209.713V210.004H181.14V181.335Z" fill="#1D38F3"/>
<path d="M124 124H152.572V152.669H124V124Z" fill="#1D38F3"/>
<path d="M152.574 152.671H181.146V181.34H152.574V152.671Z" fill="#1D38F3"/>
</svg>
