<svg width="448" height="448" viewBox="0 0 448 448" fill="none" xmlns="http://www.w3.org/2000/svg">
<rect width="448" height="448" />
<path d="M148.836 328.944H163.782V343.94H148.836V328.944Z" fill="black"/>
<path d="M133.891 328.944H148.836V343.94H133.891V328.944Z" fill="black"/>
<path d="M133.891 313.947H148.836V328.944H133.891V313.947Z" fill="black"/>
<path d="M133.891 298.951H148.836V313.947H133.891V298.951Z" fill="black"/>
<path d="M133.891 283.955H148.836V298.951H133.891V283.955Z" fill="black"/>
<path d="M133.891 268.959H148.836V283.955H133.891V268.959Z" fill="black"/>
<path d="M133.891 253.963H148.836V268.959H133.891V253.963Z" fill="black"/>
<path d="M133.891 238.966H148.836V253.962H133.891V238.966Z" fill="black"/>
<path d="M133.891 223.97H148.836V238.966H133.891V223.97Z" fill="black"/>
<path d="M133.891 208.974H148.836V223.97H133.891V208.974Z" fill="black"/>
<path d="M118.945 208.974H133.891V223.97H118.945V208.974Z" fill="black"/>
<path d="M104 208.974H118.945V223.97H104V208.974Z" fill="black"/>
<path d="M118.945 193.977H133.891V208.974H118.945V193.977Z" fill="black"/>
<path d="M133.891 193.977H148.836V208.974H133.891V193.977Z" fill="black"/>
<path d="M148.836 178.981H163.782V193.978H148.836V178.981Z" fill="black"/>
<path d="M163.782 163.985H178.727V178.981H163.782V163.985Z" fill="black"/>
<path d="M178.727 148.989H193.672V163.985H178.727V148.989Z" fill="black"/>
<path d="M193.672 133.992H208.618V148.989H193.672V133.992Z" fill="black"/>
<path d="M208.618 118.996H223.563V133.993H208.618V118.996Z" fill="black"/>
<path d="M238.509 133.992H253.454V148.989H238.509V133.992Z" fill="black"/>
<path d="M268.4 163.985H283.345V178.981H268.4V163.985Z" fill="black"/>
<path d="M283.345 178.981H298.29V193.978H283.345V178.981Z" fill="black"/>
<path d="M298.29 193.977H313.236V208.974H298.29V193.977Z" fill="black"/>
<path d="M298.29 208.974H313.236V223.97H298.29V208.974Z" fill="black"/>
<path d="M133.891 178.981H148.836V193.978H133.891V178.981Z" fill="black"/>
<path d="M148.836 163.985H163.782V178.981H148.836V163.985Z" fill="black"/>
<path d="M163.782 148.989H178.727V163.985H163.782V148.989Z" fill="black"/>
<path d="M178.727 133.992H193.672V148.989H178.727V133.992Z" fill="black"/>
<path d="M193.672 118.996H208.618V133.993H193.672V118.996Z" fill="black"/>
<path d="M208.618 104H223.563V118.996H208.618V104Z" fill="black"/>
<path d="M223.563 118.996H238.509V133.993H223.563V118.996Z" fill="black"/>
<path d="M238.509 118.996H253.454V133.993H238.509V118.996Z" fill="black"/>
<path d="M223.563 104H238.509V118.996H223.563V104Z" fill="black"/>
<path d="M253.454 148.989H268.4V163.985H253.454V148.989Z" fill="black"/>
<path d="M268.4 148.989H283.345V163.985H268.4V148.989Z" fill="black"/>
<path d="M283.345 163.985H298.29V178.981H283.345V163.985Z" fill="black"/>
<path d="M253.454 133.992H268.4V148.989H253.454V133.992Z" fill="black"/>
<path d="M253.454 118.996H268.4V133.993H253.454V118.996Z" fill="black"/>
<path d="M253.454 104H268.4V118.996H253.454V104Z" fill="black"/>
<path d="M268.4 104H283.345V118.996H268.4V104Z" fill="black"/>
<path d="M283.345 104H298.29V118.996H283.345V104Z" fill="black"/>
<path d="M298.29 104H313.236V118.996H298.29V104Z" fill="black"/>
<path d="M298.29 118.996H313.236V133.993H298.29V118.996Z" fill="black"/>
<path d="M298.29 133.992H313.236V148.989H298.29V133.992Z" fill="black"/>
<path d="M298.29 148.989H313.236V163.985H298.29V148.989Z" fill="black"/>
<path d="M298.29 163.985H313.236V178.981H298.29V163.985Z" fill="black"/>
<path d="M313.236 178.981H298.29V193.978H313.236V178.981Z" fill="black"/>
<path d="M343.127 208.974H328.181V223.97H343.127V208.974Z" fill="black"/>
<path d="M328.181 193.977H313.236V208.974H328.181V193.977Z" fill="black"/>
<path d="M328.181 208.974H313.236V223.97H328.181V208.974Z" fill="black"/>
<path d="M313.236 238.966H298.29V253.962H313.236V238.966Z" fill="black"/>
<path d="M313.236 223.97H298.29V238.966H313.236V223.97Z" fill="black"/>
<path d="M313.236 253.963H298.29V268.959H313.236V253.963Z" fill="black"/>
<path d="M313.236 268.959H298.29V283.955H313.236V268.959Z" fill="black"/>
<path d="M313.236 283.955H298.29V298.951H313.236V283.955Z" fill="black"/>
<path d="M313.236 298.951H298.29V313.947H313.236V298.951Z" fill="black"/>
<path d="M313.236 298.951H298.29V313.947H313.236V298.951Z" fill="black"/>
<path d="M313.236 313.947H298.29V328.944H313.236V313.947Z" fill="black"/>
<path d="M163.782 328.944H178.727V343.94H163.782V328.944Z" fill="black"/>
<path d="M178.727 328.944H193.672V343.94H178.727V328.944Z" fill="black"/>
<path d="M193.672 328.944H208.618V343.94H193.672V328.944Z" fill="black"/>
<path d="M193.672 313.947H208.618V328.944H193.672V313.947Z" fill="black"/>
<path d="M193.672 298.951H208.618V313.947H193.672V298.951Z" fill="black"/>
<path d="M193.672 283.955H208.618V298.951H193.672V283.955Z" fill="black"/>
<path d="M193.672 268.959H208.618V283.955H193.672V268.959Z" fill="black"/>
<path d="M193.672 253.963H208.618V268.959H193.672V253.963Z" fill="black"/>
<path d="M208.618 253.963H223.563V268.959H208.618V253.963Z" fill="black"/>
<path d="M223.563 253.963H238.509V268.959H223.563V253.963Z" fill="black"/>
<path d="M238.509 253.963H253.454V268.959H238.509V253.963Z" fill="black"/>
<path d="M238.509 268.959H253.454V283.955H238.509V268.959Z" fill="black"/>
<path d="M238.509 283.955H253.454V298.951H238.509V283.955Z" fill="black"/>
<path d="M238.509 298.951H253.454V313.947H238.509V298.951Z" fill="black"/>
<path d="M238.509 313.947H253.454V328.944H238.509V313.947Z" fill="black"/>
<path d="M238.509 328.944H253.454V343.94H238.509V328.944Z" fill="black"/>
<path d="M253.454 328.944H268.4V343.94H253.454V328.944Z" fill="black"/>
<path d="M268.4 328.944H283.345V343.94H268.4V328.944Z" fill="black"/>
<path d="M283.345 328.944H298.29V343.94H283.345V328.944Z" fill="black"/>
<path d="M298.29 328.944H313.236V343.94H298.29V328.944Z" fill="black"/>
</svg>
